<svg width="38" height="38" viewBox="0 0 38 38" fill="none" xmlns="http://www.w3.org/2000/svg">
<path d="M22.748 5.90039V4.61641C22.748 3.4957 21.8352 2.58281 20.7145 2.58281H9.41094C8.29023 2.58281 7.37734 3.4957 7.37734 4.61641V5.90039C7.37734 7.02109 8.29023 7.93398 9.41094 7.93398H20.7145C21.8352 7.93398 22.748 7.02852 22.748 5.90039ZM8.49062 5.90039V4.61641C8.49062 4.11172 8.90625 3.69609 9.41094 3.69609H20.7145C21.2191 3.69609 21.6348 4.11172 21.6348 4.61641V5.90039C21.6348 6.40508 21.2191 6.8207 20.7145 6.8207H9.41094C8.89883 6.82812 8.49062 6.4125 8.49062 5.90039ZM23.2527 25.9766H14.2055C13.9012 25.9766 13.6488 26.2289 13.6488 26.5332C13.6488 26.8375 13.9012 27.0898 14.2055 27.0898H23.2527C23.557 27.0898 23.8094 26.8375 23.8094 26.5332C23.8094 26.2289 23.557 25.9766 23.2527 25.9766ZM5.09141 1.11328H25.034C26.1695 1.11328 27.1641 1.87773 27.4461 2.97617C27.5203 3.27305 27.8246 3.45117 28.1215 3.37695C28.4184 3.30273 28.5965 2.99844 28.5223 2.70156C28.1066 1.10586 26.6742 0 25.034 0H5.09141C3.10234 0 1.48438 1.61797 1.48438 3.60703V30.6449C1.48438 32.2332 2.50117 33.6137 4.01523 34.0887C4.31211 34.1777 4.62383 34.0145 4.71289 33.725C4.80195 33.4281 4.63867 33.1164 4.34922 33.0273C3.30273 32.7008 2.60508 31.7434 2.60508 30.6523V3.60703C2.59766 2.23398 3.71836 1.11328 5.09141 1.11328ZM23.2527 18.9406H14.2055C13.9012 18.9406 13.6488 19.193 13.6488 19.4973C13.6488 19.8016 13.9012 20.0539 14.2055 20.0539H23.2527C23.557 20.0539 23.8094 19.8016 23.8094 19.4973C23.8094 19.193 23.557 18.9406 23.2527 18.9406ZM5.79648 19.4973C5.79648 20.8406 6.8875 21.9391 8.23828 21.9391C9.58906 21.9391 10.6801 20.848 10.6801 19.4973C10.6801 18.1539 9.58906 17.0555 8.23828 17.0555C6.89492 17.0555 5.79648 18.1539 5.79648 19.4973ZM9.5668 19.4973C9.5668 20.2246 8.97305 20.8258 8.23828 20.8258C7.51094 20.8258 6.90977 20.232 6.90977 19.4973C6.90977 18.7699 7.50352 18.1688 8.23828 18.1688C8.97305 18.1688 9.5668 18.7699 9.5668 19.4973ZM8.23828 28.975C9.58164 28.975 10.6801 27.884 10.6801 26.5332C10.6801 25.1824 9.58906 24.0914 8.23828 24.0914C6.89492 24.0914 5.79648 25.1824 5.79648 26.5332C5.79648 27.884 6.89492 28.975 8.23828 28.975ZM8.23828 25.2047C8.96562 25.2047 9.5668 25.7984 9.5668 26.5332C9.5668 27.2605 8.97305 27.8617 8.23828 27.8617C7.51094 27.8617 6.90977 27.268 6.90977 26.5332C6.90977 25.8059 7.51094 25.2047 8.23828 25.2047ZM35.7883 22.2137L35.0016 21.427C34.0367 20.4621 32.4781 20.4621 31.5133 21.427L28.6336 24.3066V14.3762C28.6336 14.0719 28.3812 13.8195 28.077 13.8195C27.7727 13.8195 27.5203 14.0719 27.5203 14.3762V25.4273L20.8777 32.0699C20.5883 32.3594 20.3137 32.723 20.0984 33.1312L4.18594 32.9828C3.88164 32.9828 3.6293 33.2352 3.6293 33.5395C3.6293 33.8438 3.88164 34.0961 4.18594 34.0961L19.6828 34.2445L19.3043 35.5285C18.9332 36.8125 19.9203 37.9926 21.1375 37.9926C21.5977 37.9926 21.7684 37.8664 23.2676 37.4508C23.943 37.2504 24.6184 36.8645 25.1527 36.3375L35.7883 25.702C36.7531 24.7445 36.7531 23.1785 35.7883 22.2137ZM21.3824 36.8496C20.7664 37.0277 20.1949 36.4562 20.373 35.8402L20.8109 34.3484L22.8742 36.4117L21.3824 36.8496ZM23.943 35.9145L21.3082 33.2797C21.6125 32.8492 21.3156 33.2352 28.0324 26.4887L30.734 29.1902C23.9652 35.9293 24.3734 35.6102 23.943 35.9145ZM31.5281 28.3961L28.8266 25.6945L30.1625 24.3586L32.8641 27.0602L31.5281 28.3961ZM35.0016 24.9227L33.6508 26.2734L30.9492 23.5719L32.3074 22.2137C32.8344 21.6867 33.6953 21.6867 34.2223 22.2137L35.009 23.0004C35.5285 23.5348 35.5285 24.3883 35.0016 24.9227ZM7.64453 14.0125L10.9176 10.7395C11.1328 10.5242 11.1328 10.168 10.9176 9.95273C10.7023 9.7375 10.3461 9.7375 10.1309 9.95273L7.25117 12.8324L6.33828 11.9195C6.12305 11.7043 5.7668 11.7043 5.55156 11.9195C5.33633 12.1348 5.33633 12.491 5.55156 12.7063L6.85781 14.0125C7.08047 14.2277 7.4293 14.2277 7.64453 14.0125ZM23.2527 11.9047H14.2055C13.9012 11.9047 13.6488 12.157 13.6488 12.4613C13.6488 12.7656 13.9012 13.018 14.2055 13.018H23.2527C23.557 13.018 23.8094 12.7656 23.8094 12.4613C23.8094 12.157 23.557 11.9047 23.2527 11.9047Z" fill="white"/>
<path d="M28.0845 12.1644C27.7802 12.1644 27.5278 11.9121 27.5278 11.6078V10.4945C27.5278 10.1902 27.7802 9.93787 28.0845 9.93787C28.3888 9.93787 28.6411 10.1902 28.6411 10.4945V11.6078C28.6411 11.9195 28.3888 12.1644 28.0845 12.1644Z" fill="white"/>
<path d="M28.0845 7.71875C27.7802 7.71875 27.5278 7.46641 27.5278 7.16211V6.04883C27.5278 5.74453 27.7802 5.49219 28.0845 5.49219C28.3888 5.49219 28.6411 5.74453 28.6411 6.04883V7.16211C28.6411 7.47383 28.3888 7.71875 28.0845 7.71875Z" fill="white"/>
</svg>
