<svg width="23" height="23" viewBox="0 0 23 23" fill="none" xmlns="http://www.w3.org/2000/svg">
<path d="M14.6265 4.9998H16.7243C17.1735 4.9998 17.5374 4.63594 17.5374 4.18672V0.817578C17.5374 0.368359 17.1735 0.00449219 16.7243 0.00449219H13.8448C13.8179 0 13.7685 0 13.7011 0C13.1575 0 11.2708 0.107812 9.77041 1.48691C8.13525 2.9918 8.29248 4.79316 8.35986 5.2334V7.42559H6.27549C5.82627 7.42559 5.4624 7.78945 5.4624 8.23867V11.8594C5.4624 12.3086 5.82627 12.6725 6.27549 12.6725H8.23857V22.1779C8.23857 22.6271 8.60244 22.991 9.05166 22.991H13.1575C13.6067 22.991 13.9706 22.6271 13.9706 22.1779V12.7264H16.2931C16.7063 12.7264 17.0567 12.4164 17.1017 12.0031L17.5239 8.33301C17.5509 8.10391 17.479 7.87031 17.3218 7.69961C17.169 7.52441 16.9444 7.42559 16.7153 7.42559H13.9661V5.58379C13.9751 5.20645 14.0784 4.9998 14.6265 4.9998ZM13.5169 8.34199H16.6075L16.2077 11.8055H13.5169C13.2653 11.8055 13.0587 12.0121 13.0587 12.2637V22.0791H9.15947V12.2188C9.15947 11.9672 8.95283 11.7605 8.70127 11.7605H6.37881V8.34199H8.81807C9.06963 8.34199 9.27627 8.13535 9.27627 7.88379V5.19297C9.27627 5.16602 9.27178 5.13906 9.27178 5.1166C9.22236 4.83809 9.05166 3.3916 10.3903 2.16074C11.6437 1.00625 13.2384 0.916406 13.7011 0.916406C13.764 0.916406 13.8044 0.916406 13.8089 0.916406C13.8179 0.916406 13.8224 0.916406 13.8313 0.916406H16.6165V4.07891H14.622C13.6382 4.07891 13.0542 4.64043 13.0542 5.58379V7.88379C13.0587 8.13984 13.2608 8.34199 13.5169 8.34199Z" fill="#545454"/>
</svg>
