<svg width="160" height="32" viewBox="0 0 160 32" fill="none" xmlns="http://www.w3.org/2000/svg">
<g clip-path="url(#clip0)">
<path d="M53.1374 11.434V15.2787H63.9328V18.5525H53.1374V23.2871H49.2592V8.17688H65.2256V11.434H53.1374Z" fill="white"/>
<path d="M107.937 8.15955V23.2697H102.648L92.3567 11.9371V23.2697H88.4785V8.15955H93.7502L104.076 19.509V8.15955H107.937Z" fill="white"/>
<path d="M152.663 18.871C152.663 21.4229 151.169 23.2697 147.744 23.2697H133.927V8.15955H147.223C150.648 8.15955 151.706 9.90561 151.706 12.1386C151.706 13.1963 151.27 14.2372 150.514 15.0767C151.824 15.8657 152.663 17.1249 152.663 18.871ZM137.822 14.1029H145.83H145.847C146.888 14.1029 147.828 14.1029 147.828 12.5247C147.828 10.9633 146.871 10.9633 145.813 10.9633H137.805V14.1029H137.822ZM148.785 18.6863C148.785 17.0913 147.828 17.0913 146.804 17.0913H137.822V20.2813H146.804C147.828 20.2813 148.785 20.2813 148.785 18.6863Z" fill="white"/>
<path d="M159.463 23.2697H155.584V8.15955H159.463V23.2697Z" fill="white"/>
<path d="M81.6117 23.2697H85.8929L78.086 8.15955H72.8478L65.0409 23.2697H69.3221L70.0273 21.8594L72.3945 17.1753L73.5362 14.892L75.4669 11.0305L77.3977 14.892L81.2256 22.531L81.6117 23.2697Z" fill="white"/>
<path d="M126.875 23.2697H131.173L123.349 8.15955H118.111L110.321 23.2697H114.586L115.307 21.8594L117.658 17.1753L118.8 14.892L120.747 11.0305L122.678 14.892L126.506 22.531L126.875 23.2697Z" fill="white"/>
<path d="M31.3788 32H7.06821C3.17314 32 0 28.8269 0 24.9486V7.0682C0 3.17314 3.17314 0 7.06821 0H31.3956C35.2739 0 38.447 3.17314 38.447 7.0682V24.9486C38.447 28.8269 35.2739 32 31.3788 32Z" fill="#FB6E01"/>
<path d="M8.93181 12.743H5.96014V5.59082H13.1123V8.56249H8.93181V12.743Z" fill="black"/>
<path d="M13.1123 26.3589H5.96014V19.2068H8.93181V23.3873H13.1123V26.3589Z" fill="black"/>
<path d="M32.4869 12.743H29.5153V8.56249H25.318V5.59082H32.4869V12.743Z" fill="black"/>
<path d="M32.4869 26.3589H25.318V23.3873H29.5153V19.2068H32.4869V26.3589Z" fill="black"/>
</g>
<defs>
<clipPath id="clip0">
<rect width="159.463" height="32" fill="white"/>
</clipPath>
</defs>
</svg>
