<svg width="19" height="19" viewBox="0 0 19 19" fill="none" xmlns="http://www.w3.org/2000/svg">
<g clip-path="url(#clip0)">
<path d="M18.8441 3.59214C18.6994 3.41772 18.4767 3.33237 18.2577 3.35464C18.3431 3.1728 18.421 2.98726 18.4804 2.79429C18.5658 2.53081 18.4767 2.23765 18.2577 2.06323C18.0425 1.88882 17.7345 1.87026 17.497 2.01128C16.9478 2.33784 16.3615 2.57905 15.7454 2.73491C14.9661 2.04468 13.9382 1.65503 12.8954 1.65503C10.5279 1.65503 8.60189 3.58101 8.60189 5.94858C8.60189 5.97456 8.60189 6.00054 8.60189 6.02651C6.1972 5.69995 3.96322 4.45308 2.42318 2.56421C2.28216 2.39351 2.06693 2.30073 1.84798 2.31929C1.62904 2.33784 1.42864 2.4603 1.32103 2.64956C0.938801 3.30269 0.73841 4.04858 0.73841 4.80933C0.73841 5.481 0.89427 6.13413 1.18743 6.72788C1.13919 6.74272 1.09095 6.76128 1.04642 6.78725C0.842317 6.90229 0.712434 7.12124 0.708723 7.35503C0.708723 7.37729 0.708723 7.39585 0.708723 7.41811C0.708723 8.63901 1.23939 9.80053 2.13001 10.6058C1.989 10.7802 1.94075 11.0214 2.01126 11.2367C2.37865 12.3908 3.22474 13.3259 4.30091 13.8232C3.43997 14.2165 2.50111 14.4244 1.53626 14.4244C1.27279 14.4244 1.00931 14.4095 0.753254 14.3798C0.441535 14.3427 0.148371 14.5246 0.040754 14.8214C-0.0668632 15.1183 0.044465 15.4449 0.311653 15.6156C2.08177 16.7511 4.1265 17.3486 6.22689 17.3486C10.3572 17.3486 12.94 15.4003 14.3835 13.7638C16.1759 11.7302 17.2076 9.03608 17.2076 6.37163C17.2076 6.32339 17.2076 6.27886 17.2076 6.23061C17.8607 5.71479 18.4247 5.09878 18.8923 4.40112C19.0519 4.15249 19.0333 3.81851 18.8441 3.59214ZM16.5915 5.74077C16.4951 5.81499 16.4357 5.93003 16.4394 6.0562C16.4431 6.16011 16.4431 6.26401 16.4431 6.36792C16.4431 8.85053 15.482 11.3628 13.8083 13.2591C12.4761 14.7806 10.0714 16.5878 6.22689 16.5878C4.38997 16.5878 2.6013 16.0943 1.02415 15.1628C1.19486 15.174 1.36556 15.1814 1.53626 15.1814C2.92786 15.1814 4.27493 14.7955 5.44017 14.0681C5.57005 13.9865 5.63685 13.8343 5.61087 13.6822C5.5849 13.53 5.46986 13.4113 5.32142 13.3779C4.14876 13.1144 3.18392 12.2646 2.77572 11.1402C2.8388 11.1513 2.90189 11.1587 2.96497 11.1624C3.1431 11.181 3.30638 11.0734 3.36204 10.9027C3.41771 10.7357 3.3472 10.5501 3.19505 10.4574C2.15228 9.83764 1.49544 8.71323 1.46204 7.51089C1.61048 7.5851 1.76263 7.6519 1.91849 7.70386C2.07806 7.75952 2.2599 7.70014 2.35638 7.55913C2.45286 7.41811 2.44173 7.22886 2.3304 7.09897C1.78861 6.46069 1.48802 5.648 1.48802 4.80561C1.48802 4.21929 1.63275 3.64409 1.90736 3.13198C3.67005 5.23979 6.23802 6.58686 8.96927 6.82436C9.08431 6.8355 9.19564 6.79097 9.27357 6.70932C9.3515 6.62768 9.39232 6.51264 9.37747 6.39761C9.35892 6.24546 9.34779 6.09331 9.34779 5.94116C9.34779 3.98921 10.9361 2.40464 12.8843 2.40464C13.8009 2.40464 14.7064 2.77202 15.3595 3.41401C15.4523 3.50308 15.5822 3.54018 15.7046 3.51421C16.3911 3.36206 17.0517 3.11343 17.6714 2.77202C17.523 3.15796 17.304 3.5105 17.0294 3.82222C16.9181 3.94839 16.9033 4.13393 16.9923 4.27495C17.0814 4.41597 17.2558 4.48276 17.4191 4.43452C17.6417 4.37143 17.8644 4.2935 18.0796 4.20815C17.6714 4.79819 17.1667 5.3103 16.5915 5.74077Z" fill="#FB6E01" stroke="#FB6E01" stroke-width="0.5" stroke-miterlimit="10"/>
</g>
<defs>
<clipPath id="clip0">
<rect width="19" height="19" fill="white"/>
</clipPath>
</defs>
</svg>
